<?xml version="1.0" encoding="UTF-8"?>
<svg width="86px" height="90px" viewBox="0 0 86 90" version="1.1" xmlns="http://www.w3.org/2000/svg" xmlns:xlink="http://www.w3.org/1999/xlink">
    <!-- Generator: Sketch 55.2 (78181) - https://sketchapp.com -->
    <title>family</title>
    <desc>Created with Sketch.</desc>
    <defs>
        <polygon id="path-1" points="0.213979228 0.199101484 9.8505727 0.199101484 9.8505727 3.82789318 0.213979228 3.82789318"></polygon>
        <polygon id="path-3" points="0.255192878 0.127596439 0.382789318 0.127596439 0.382789318 0.255192878 0.255192878 0.255192878"></polygon>
        <polygon id="path-5" points="0.255192878 0.127596439 0.382789318 0.127596439 0.382789318 0.255192878 0.255192878 0.255192878"></polygon>
        <polygon id="path-7" points="0.0684521514 0.123334718 11.0652653 0.123334718 11.0652653 3.31750742 0.0684521514 3.31750742"></polygon>
    </defs>
    <g id="Landing-Page" stroke="none" stroke-width="1" fill="none" fill-rule="evenodd">
        <g id="Desktop-HD-Copy-6" transform="translate(-273.000000, -1118.000000)">
            <g id="Group-2" transform="translate(127.000000, 1078.000000)">
                <g id="family" transform="translate(146.000000, 40.000000)">
                    <g id="Group-3" transform="translate(58.949555, 85.246926)">
                        <mask id="mask-2" fill="white">
                            <use xlink:href="#path-1"></use>
                        </mask>
                        <g id="Clip-2"></g>
                        <path d="M6.1918724,0.199101484 L2.43415727,1.33037151 C1.37842433,1.71979585 0.570994065,2.5887276 0.259403561,3.67023501 L0.213979228,3.82794421 L8.98955193,3.82794421 C9.29450742,3.82794421 9.55021068,3.59750504 9.5818546,3.29433591 L9.8505727,0.719439763 C7.68806825,1.29566528 6.1918724,0.199101484 6.1918724,0.199101484" id="Fill-1" fill="#3278EA" mask="url(#mask-2)"></path>
                    </g>
                    <polygon id="Fill-4" fill="#4795FF" points="78.8994113 52.3242629 64.4348237 52.393165 65.1414528 85.4460018 68.8001531 85.9663401 71.6460641 58.7063816 73.2992036 86.1337466 77.074527 85.5820196"></polygon>
                    <path d="M82.7750255,88.5534344 C82.3521709,87.6867994 81.5939929,87.0304433 80.6755537,86.7359507 L77.074527,85.5819685 C77.074527,85.5819685 75.7717674,87.0136006 73.2992036,86.1336955 L73.4428772,88.5151555 C73.4617614,88.8295531 73.7223134,89.0747935 74.0372214,89.0747935 L83.0294528,89.0747935 L82.7750255,88.5534344 Z" id="Fill-6" fill="#3278EA"></path>
                    <g id="Group-10" transform="translate(0.000000, 88.819626)">
                        <mask id="mask-4" fill="white">
                            <use xlink:href="#path-3"></use>
                        </mask>
                        <g id="Clip-9"></g>
                        <path d="" id="Fill-8" fill="#4795FF" mask="url(#mask-4)"></path>
                    </g>
                    <path d="M68.8002297,85.966238 L68.8002297,85.966238 L65.1415294,85.4458997 C65.1415294,85.4458997 66.63747,86.5427187 68.8002297,85.966238" id="Fill-11" fill="#4795FF"></path>
                    <g id="Group-15" transform="translate(0.000000, 88.819626)">
                        <mask id="mask-6" fill="white">
                            <use xlink:href="#path-5"></use>
                        </mask>
                        <g id="Clip-14"></g>
                        <path d="" id="Fill-13" fill="#4795FF" mask="url(#mask-6)"></path>
                    </g>
                    <path d="M77.0745525,85.5819685 L73.2992291,86.1336955 C75.7717929,87.0136006 77.0745525,85.5819685 77.0745525,85.5819685" id="Fill-16" fill="#4795FF"></path>
                    <path d="M58.0761318,34.2152914 C58.0761318,34.2152914 47.4065175,44.0136772 46.1285116,45.238603 C44.8502504,46.4635288 44.4353068,47.3375644 45.6068973,48.3494042 C46.7784878,49.3614991 48.5890813,47.3908997 49.2814196,46.6452261 C49.9737579,45.8998077 60.9439893,36.4740036 60.9439893,36.4740036 L63.5163335,33.2917484 L60.03193,31.0873923 L58.0761318,34.2152914 Z" id="Fill-18" fill="#D4AAF9"></path>
                    <path d="M85.7488647,48.350476 C85.414562,46.5123217 84.4953573,37.2092653 84.2146451,34.3304344 C84.1597786,33.7684997 83.9852267,33.22647 83.7022178,32.7380309 L82.7291674,31.0580961 L79.767654,33.0072593 L81.0397905,35.7105175 C81.0397905,35.7105175 82.5763068,47.4784819 82.7250843,48.7176985 C82.8738617,49.9566599 83.6851199,52.5621792 84.6426036,52.4389211 C85.6000872,52.3159181 86.1454344,50.5313543 85.7488647,48.350476" id="Fill-20" fill="#D4AAF9"></path>
                    <path d="M83.6035347,30.4826107 L80.3495703,24.7744564 C79.192781,22.7433763 77.0353804,21.4893585 74.698324,21.4893585 L68.5943656,21.4893585 C66.3119205,21.4893585 64.1966267,22.6859579 63.0204427,24.6420113 L59.5043953,30.7536255 L60.0318789,31.0874178 L63.5165377,33.2917739 L64.2361816,33.747038 L65.4366089,31.6922249 L63.4435525,52.393216 C63.4435525,52.393216 67.0581045,53.6349846 71.5540926,53.6349846 C76.0503359,53.6349846 79.8003953,52.3243139 79.8003953,52.3243139 L78.21233,31.3686404 L79.3742231,33.2662546 L79.7677306,33.007489 L82.7289887,31.0580706 L83.6035347,30.4826107 Z" id="Fill-22" fill="#3278EA"></path>
                    <path d="M20.1546997,89.0747935 L29.3390914,89.0747935 C29.8096671,89.0747935 30.1623436,88.7315591 30.068943,88.3643365 C29.8290617,87.4213988 28.9626819,86.6573513 27.8086997,86.3715353 L25.1220291,85.7057371 L19.8308599,86.1178736 L20.1546997,89.0747935 Z" id="Fill-24" fill="#3278EA"></path>
                    <g id="Group-28" transform="translate(4.083086, 85.757312)">
                        <mask id="mask-8" fill="white">
                            <use xlink:href="#path-7"></use>
                        </mask>
                        <g id="Clip-27"></g>
                        <path d="M2.46067181,0.756213056 C1.48047596,0.959346588 0.671004154,1.50877685 0.263971513,2.24730504 L0.132036795,2.48642077 C-0.0838563798,2.87814184 0.276475964,3.31758398 0.813912166,3.31758398 L10.8432475,3.31758398 L11.0652653,0.382100297 L5.51379941,0.123334718 L2.46067181,0.756213056 Z" id="Fill-26" fill="#3278EA" mask="url(#mask-8)"></path>
                    </g>
                    <path d="M8.34952819,52.3558047 L8.83133234,86.0838819 L15.4035697,86.4087424 L17.1102997,57.0748315 L19.5757181,86.3814368 L25.6204718,86.024422 L25.506911,52.1832944 C23.8609169,52.4617098 20.4931365,52.9496386 17.1177003,52.9496386 C13.6422285,52.9496386 10.0197656,52.5609798 8.34952819,52.3558047" id="Fill-29" fill="#4795FF"></path>
                    <path d="M31.0787668,28.9962908 L26.7284938,21.5472107 C25.317022,19.2545579 22.8174077,17.8581424 20.125378,17.8581424 L13.019022,17.8581424 C10.2540071,17.8581424 7.69850564,19.3306053 6.31127715,21.7220178 L2.04700415,29.541638 L2.74112878,29.9581128 L6.86351454,32.4329733 L7.38359763,32.7450742 L8.68508131,31.0886172 L7.65614362,52.2321128 C7.65614362,52.2321128 7.75107537,52.2823858 8.34950267,52.3558813 L8.35052344,52.2321128 L25.5017816,51.9947834 L25.5071407,52.1833709 C26.1629864,52.072362 26.0359003,51.9947834 26.0359003,51.9947834 L24.7066006,30.4873828 L26.1788083,32.4998338 L26.6726065,32.1466469 L30.3167608,29.5411276 L31.0787668,28.9962908 Z" id="Fill-31" fill="#3278EA"></path>
                    <path d="M8.35052344,52.2321893 L8.34950267,52.3557027 C10.0199953,52.5611329 13.642203,52.9497917 17.1176748,52.9497917 C20.493111,52.9497917 23.8608914,52.4616077 25.5068855,52.1834475 L25.5017816,51.9948599 L8.35052344,52.2321893 Z" id="Fill-33" fill="#3278EA"></path>
                    <path d="M2.30952107,30.7030208 C1.88870801,31.4295549 1.64397804,32.2431098 1.5952362,33.0814184 C1.38597804,36.6712166 0.775301484,46.7566944 0.404506231,48.7961958 C-0.0484611276,51.2876439 0.574209496,53.3258694 1.66796617,53.4664807 C2.76172285,53.607092 3.68832819,51.7972641 3.85828665,50.3817092 C4.02798991,48.9661543 5.78346172,34.3581484 5.78346172,34.3581484 L6.86343798,32.4329733 L2.74105223,29.9581128 L2.30952107,30.7030208 Z" id="Fill-35" fill="#D4AAF9"></path>
                    <path d="M42.3429039,44.0548142 C40.996251,42.7643039 31.6740552,31.7119003 31.6740552,31.7119003 L30.3166843,29.5412297 L26.67253,32.146749 L28.0352599,34.124749 C28.2662095,34.4598172 28.5379899,34.7627312 28.8465181,35.0281318 C31.0087674,36.8882326 38.1097644,45.3838588 38.7515745,46.0749211 C39.4811709,46.8606599 41.3889929,48.936654 42.6233608,47.8707134 C43.857984,46.8045175 43.6895567,45.3455798 42.3429039,44.0548142" id="Fill-37" fill="#D4AAF9"></path>
                    <path d="M12.7155976,3.44724748 C12.7155976,3.44724748 15.5854967,5.19174599 19.8061318,3.89740772 C19.8061318,3.89740772 22.053105,3.88796558 23.6304522,6.64889733 C22.8510932,2.82968071 20.0312119,0.000102077151 16.6710872,0.000102077151 C15.6191822,0.000102077151 13.2862089,0.320113947 12.1240605,0.53141365 C10.9621674,0.74245816 9.27202493,0.000102077151 9.27202493,0.000102077151 C9.53614955,1.15918813 10.8036926,2.01025638 10.8036926,2.01025638 C9.85309911,2.48542552 9.27202493,2.27412582 9.27202493,2.27412582 C9.32484985,3.01367478 10.5268083,4.24778754 10.5268083,4.24778754 L10.5270635,4.24778754 C10.1669864,4.97738398 9.89469555,5.77792404 9.71963323,6.62592997 C9.80844036,6.38681424 10.601835,4.39835134 12.7155976,3.44724748" id="Fill-39" fill="#4795FF"></path>
                    <path d="M23.6310902,5.8843905 C23.630835,5.88413531 23.630835,5.88388012 23.6305798,5.88336973 C23.6305798,5.88388012 23.6305798,5.88413531 23.630835,5.8843905 L23.6310902,5.8843905 Z" id="Fill-41" fill="#4795FF"></path>
                    <path d="M9.710727,5.8843905 L9.71481009,5.8843905 C9.71634125,5.87622433 9.7178724,5.86831335 9.71965875,5.86014718 C9.71378932,5.87571395 9.710727,5.8843905 9.710727,5.8843905" id="Fill-43" fill="#4795FF"></path>
                    <path d="M23.6307074,6.64996914 C23.6307074,6.64971395 23.6307074,6.64945875 23.6304522,6.64894837 C22.053105,3.88776142 19.8061318,3.89745875 19.8061318,3.89745875 C15.5854967,5.19179703 12.7155976,3.44729852 12.7155976,3.44729852 C10.601835,4.39840237 9.80844036,6.38686528 9.71963323,6.62572582 C9.71784688,6.63389199 9.71631573,6.64180297 9.71478457,6.64996914 C9.57493887,7.33439644 9.49684985,8.04842611 9.49684985,8.78567834 C9.49684985,12.2792688 11.1619834,15.2961591 13.5733009,16.7119691 L13.5727905,16.7119691 L13.5727905,18.7624439 C13.5727905,18.7624439 14.2937104,20.1547763 16.5628855,20.1547763 C18.8323157,20.1547763 19.3427015,19.0873045 19.3427015,19.0873045 L19.3427015,16.939346 C21.9813958,15.641435 23.8453246,12.4811264 23.8453246,8.78567834 C23.8453246,8.0489365 23.7700427,7.33388605 23.6307074,6.64996914" id="Fill-45" fill="#D4AAF9"></path>
                    <path d="M13.5728926,16.7120202 C14.7161567,17.305854 16.838851,17.979308 19.3428036,16.939397 L19.3428036,18.1135395 C19.3428036,18.1135395 16.1646315,19.705943 13.5728926,17.7654564 L13.5728926,16.7120202 Z" id="Fill-47" fill="#9F6BD6"></path>
                    <path d="M38.482346,86.3418053 L39.7981205,86.3418053 L37.7292718,86.9318113 C37.1607021,87.0938588 36.696251,87.5049745 36.4668326,88.0498113 L36.303254,88.4374493 C36.1756576,88.7398528 36.3979306,89.0746659 36.7263638,89.0746659 L43.306257,89.0746659 L44.5493015,68.4517638 L46.4377288,89.0746659 L52.5511294,89.0746659 C52.8400077,89.0746659 53.0569217,88.811562 53.0018,88.5280427 L52.964797,88.3386896 C52.8269929,87.6307846 52.3099721,87.0563454 51.6199306,86.8458113 L49.8034677,86.5462148 L50.7826427,86.4849685 L50.0484528,65.1947371 L38.6658297,65.3307549 L38.482346,86.3418053 Z" id="Fill-49" fill="#3278EA"></path>
                    <path d="M62.1397976,59.5919009 C61.2718866,58.7602273 54.0261953,52.106073 54.0261953,52.106073 L53.4155187,51.1294499 L51.0146641,52.693527 L51.7075128,53.6992421 C51.8386819,53.8898712 51.9928184,54.061616 52.1683911,54.212435 C53.4951389,55.3539128 59.4082131,60.4445003 59.8254534,60.893895 C60.2955187,61.4001976 61.525038,62.7381739 62.3204742,62.0511947 C63.1161656,61.3639602 63.0077086,60.4235745 62.1397976,59.5919009" id="Fill-51" fill="#D4AAF9"></path>
                    <path d="M35.0002392,51.0838214 C34.6524113,51.575578 34.424524,52.1405751 34.3349513,52.7361953 C33.9792125,55.1025988 33.0179009,61.3905513 32.6654795,62.6614119 C32.2288445,64.2336552 32.5095567,65.5782665 33.2031709,65.7326582 C33.8970404,65.8867947 34.5975448,64.7792576 34.7894499,63.8807234 C34.9810997,62.9821893 36.9619068,53.7092457 36.9619068,53.7092457 L37.4671887,52.8484801 L35.0140196,51.0641715 L35.0002392,51.0838214 Z" id="Fill-53" fill="#D4AAF9"></path>
                    <path d="M54.0261953,50.7316807 L50.5218866,45.0398588 C49.8093881,43.8825591 48.5474593,43.1777163 47.1883021,43.1777163 L41.379857,43.1777163 C39.9839519,43.1777163 38.6936967,43.920838 37.9934475,45.1281555 L34.6881893,50.827378 L35.0140706,51.064197 L37.4672398,52.8482504 L38.0539282,53.2749329 L38.7883733,52.1122742 L38.0539282,65.3307549 C38.0539282,65.3307549 41.241032,66.028197 44.3579579,66.028197 C47.4748837,66.028197 50.7214475,65.1947371 50.7214475,65.1947371 L49.864765,51.316838 L50.6395306,52.9378231 L51.0146641,52.6933484 L53.4155187,51.1295264 L54.0261953,50.7316807 Z" id="Fill-55" fill="#4795FF"></path>
                    <path d="M41.301181,32.7332332 C45.15,34.0847347 47.7353591,32.5862421 47.7353591,32.5862421 C47.7353591,32.5862421 49.4216736,34.1253104 49.6942196,35.2856724 C49.5367656,34.1013223 49.0968131,33.0249187 48.4506647,32.1572629 C49.4318813,30.5365329 48.4999169,28.6350908 48.4999169,28.6350908 C47.2997448,30.0659573 45.6841187,29.9830196 44.3571157,29.9830196 C41.5556083,29.9830196 39.2522374,32.4512451 38.9794362,35.6118089 C39.595727,33.2913401 41.301181,32.7332332 41.301181,32.7332332" id="Fill-57" fill="#3278EA"></path>
                    <path d="M49.7026154,35.3150706 C49.7005739,35.3053733 49.6964908,35.2954208 49.6941941,35.2857234 C49.69547,35.2954208 49.6964908,35.3053733 49.6977668,35.3150706 L49.7026154,35.3150706 Z" id="Fill-59" fill="#D4AAF9"></path>
                    <path d="M38.9792831,35.6123703 L38.9792831,35.6123703 C38.9792831,35.6123703 38.9795383,35.6121151 38.9795383,35.6118599 C38.9792831,35.6121151 38.9792831,35.6123703 38.9792831,35.6123703" id="Fill-61" fill="#D4AAF9"></path>
                    <path d="M49.6977668,35.3151982 C49.6964908,35.3052457 49.69547,35.2955484 49.6941941,35.285851 C49.4216481,34.1252338 47.7355887,32.5864208 47.7355887,32.5864208 C47.7355887,32.5864208 45.1499745,34.0846582 41.3011555,32.7331567 C41.3011555,32.7331567 39.5957015,33.2912635 38.9796659,35.6119875 C38.9796659,35.6119875 38.9794107,35.6122427 38.9794107,35.6124979 C38.9615472,35.8192042 38.9523602,36.0289727 38.9523602,36.2412932 C38.9523602,38.9144386 40.4005798,41.1950973 42.4377846,42.0918451 L42.4377846,43.730949 C42.4377846,43.730949 43.0017608,44.519495 44.3570902,44.519495 C45.7126748,44.519495 46.1301703,43.9164742 46.1301703,43.9164742 L46.1301703,42.1530914 C48.2439329,41.3030439 49.7620754,38.9782368 49.7620754,36.2412932 C49.7620754,35.9258748 49.7368113,35.617857 49.6977668,35.3151982" id="Fill-63" fill="#D4AAF9"></path>
                    <path d="M42.4377335,42.0917685 C43.2127543,42.4607774 44.9503626,42.5960297 46.1301193,42.1530148 L46.1301193,42.8047774 C46.1301193,42.8047774 44.8531341,43.8684214 42.4377335,42.8047774 L42.4377335,42.0917685 Z" id="Fill-65" fill="#9F6BD6"></path>
                    <path d="M78.3492665,12.1528208 L78.3479905,12.1556279 C78.3479905,12.1546071 78.3479905,12.1538415 78.3479905,12.1528208 C78.3479905,7.54812047 75.2997116,3.81515905 71.5394445,3.81515905 C67.7794326,3.81515905 64.7311537,7.54812047 64.7311537,12.1528208 C64.7311537,15.434346 64.7497828,19.5518831 63.4357947,20.9972955 C63.4357947,20.9972955 65.5773733,20.4657288 66.1076641,19.2012481 L66.7208926,19.9897941 C66.7208926,19.9897941 67.18713,19.4699662 67.4423228,18.8113134 C66.2704772,17.6680493 65.6763881,13.6007852 65.9734326,11.5212184 C66.2704772,9.44190682 67.184578,7.86532522 67.184578,7.86532522 C67.184578,7.86532522 70.6120736,13.3721323 75.8450588,13.8978297 C75.8450588,13.8978297 74.8592487,16.4566487 75.6378421,18.8102926 C75.8927798,19.4694558 76.3595276,19.9897941 76.3595276,19.9897941 L76.9727561,19.2012481 C77.5030469,20.4657288 79.6446255,20.9972955 79.6446255,20.9972955 C78.3306374,19.5518831 78.3492665,15.434346 78.3492665,12.1528208" id="Fill-67" fill="#3278EA"></path>
                    <path d="M75.8449312,13.8978042 C70.6122012,13.3721068 67.1844504,7.8652997 67.1844504,7.8652997 C67.1844504,7.8652997 66.2706047,9.4421365 65.9735602,11.5211929 C65.6765157,13.6007596 66.2706047,17.6680237 67.4421953,18.8112878 C68.0975306,19.4168605 68.8452457,19.8800356 69.6544623,20.1653412 L69.6536967,20.1655964 L69.6536967,21.6985401 C69.6536967,21.6985401 70.1482605,22.8144985 71.5400825,22.8144985 C72.9321596,22.8144985 73.6296018,21.9777211 73.6296018,21.9777211 L73.6296018,20.088273 C74.3604742,19.7993947 75.0380113,19.3650564 75.6377145,18.8102671 C74.8593763,16.4566231 75.8449312,13.8978042 75.8449312,13.8978042" id="Fill-69" fill="#D4AAF9"></path>
                    <path d="M69.6543858,20.1653668 C70.3656083,20.3886605 72.2234125,20.8689335 73.6295252,20.0882985 L73.6295252,20.9972955 C73.6295252,20.9972955 72.318089,21.933343 69.6543858,20.9972955 L69.6543858,20.1653668 Z" id="Fill-71" fill="#9F6BD6"></path>
                </g>
            </g>
        </g>
    </g>
</svg>