<?xml version="1.0" encoding="UTF-8"?>
<svg width="220px" height="40px" viewBox="0 0 220 40" version="1.1" xmlns="http://www.w3.org/2000/svg" xmlns:xlink="http://www.w3.org/1999/xlink">
    <!-- Generator: Sketch 55.2 (78181) - https://sketchapp.com -->
    <title>Group 36</title>
    <desc>Created with Sketch.</desc>
    <defs>
        <polygon id="path-1" points="0 39.4254118 220 39.4254118 220 0.00031372549 0 0.00031372549"></polygon>
    </defs>
    <g id="Landing-Page" stroke="none" stroke-width="1" fill="none" fill-rule="evenodd">
        <g id="Desktop-HD-Copy-6" transform="translate(-127.000000, -28.000000)">
            <g id="Group-36" transform="translate(127.000000, 28.000000)">
                <path d="M19.2601418,11.7383529 L10.9804965,11.7383529 L10.9804965,20.0622745 C10.9804965,24.6599216 14.6877305,28.3861961 19.2601418,28.3861961 C23.8325532,28.3861961 27.5397872,24.6599216 27.5397872,20.0622745 C27.5397872,15.4646275 23.8325532,11.7383529 19.2601418,11.7383529" id="Fill-1" fill="#5C5F6D"></path>
                <path d="M5.64612057,5.67639216 L5.64612057,19.7124706 C5.64612057,27.4520784 11.9090993,33.748549 19.607539,33.748549 C27.3067589,33.748549 33.5697376,27.4520784 33.5697376,19.7124706 C33.5697376,11.9728627 27.3067589,5.67639216 19.607539,5.67639216 L5.64612057,5.67639216 Z M19.607539,39.4254118 C8.79633333,39.4254118 0.000234042553,30.5822745 0.000234042553,19.7124706 L0.000234042553,0.00031372549 L19.607539,0.00031372549 C30.4195248,0.00031372549 39.2156241,8.84345098 39.2156241,19.7124706 C39.2156241,30.5822745 30.4195248,39.4254118 19.607539,39.4254118 L19.607539,39.4254118 Z" id="Fill-3" fill="#4795FF"></path>
                <polygon id="Fill-5" fill="#454545" points="59.163539 10.0287843 53.6440355 10.0287843 53.6440355 14.9613333 51.155383 14.9613333 51.155383 3.2107451 53.6440355 3.2107451 53.6440355 7.82643137 59.163539 7.82643137 59.163539 3.2107451 61.6693546 3.2107451 61.6693546 14.9613333 59.163539 14.9613333"></polygon>
                <polygon id="Fill-7" fill="#454545" points="63.9643759 3.21082353 72.2354397 3.21082353 72.2354397 5.36062745 66.4522482 5.36062745 66.4522482 7.91435294 72.1121773 7.91435294 72.1121773 10.0641569 66.4522482 10.0641569 66.4522482 12.7943529 72.2354397 12.7943529 72.2354397 14.9614118 63.9643759 14.9614118"></polygon>
                <path d="M77.4214326,10.7683137 L81.2940567,10.7683137 L79.3663262,5.37772549 L77.4214326,10.7683137 Z M81.977461,12.9353725 L76.7551915,12.9353725 L76.0195177,14.9612549 L73.2859007,14.9612549 L77.8068227,3.21066667 L80.9258298,3.21066667 L85.4295887,14.9612549 L82.7131348,14.9612549 L81.977461,12.9353725 Z" id="Fill-9" fill="#454545"></path>
                <polygon id="Fill-11" fill="#454545" points="86.8658298 3.21082353 89.3537021 3.21082353 89.3537021 12.7590588 94.2951206 12.7590588 94.2951206 14.9614118 86.8658298 14.9614118"></polygon>
                <polygon id="Fill-13" fill="#454545" points="97.6773475 5.4132549 94.2603262 5.4132549 94.2603262 3.21090196 103.582241 3.21090196 103.582241 5.4132549 100.183163 5.4132549 100.183163 14.9614902 97.6773475 14.9614902"></polygon>
                <polygon id="Fill-15" fill="#454545" points="113.184539 10.0287843 107.665035 10.0287843 107.665035 14.9613333 105.176383 14.9613333 105.176383 3.2107451 107.665035 3.2107451 107.665035 7.82643137 113.184539 7.82643137 113.184539 3.2107451 115.690355 3.2107451 115.690355 14.9613333 113.184539 14.9613333"></polygon>
                <mask id="mask-2" fill="white">
                    <use xlink:href="#path-1"></use>
                </mask>
                <g id="Clip-18"></g>
                <polygon id="Fill-17" fill="#454545" mask="url(#mask-2)" points="122.470567 14.961098 124.95844 14.961098 124.95844 3.2105098 122.470567 3.2105098"></polygon>
                <polygon id="Fill-19" fill="#454545" mask="url(#mask-2)" points="130.811298 7.06917647 130.811298 14.9617255 128.323426 14.9617255 128.323426 3.21113725 130.881511 3.21113725 136.296475 10.8213333 136.296475 3.21113725 138.784348 3.21113725 138.784348 14.9617255 136.383851 14.9617255"></polygon>
                <path d="M141.657454,11.4028235 C142.481284,12.2655686 143.760716,12.9879216 145.372489,12.9879216 C146.739298,12.9879216 147.404759,12.3361569 147.404759,11.6671373 C147.404759,10.7863529 146.389014,10.4867451 145.039369,10.1698824 C143.129582,9.72909804 140.676035,9.20047059 140.676035,6.57615686 C140.676035,4.62086275 142.358021,3.03498039 145.109582,3.03498039 C146.967099,3.03498039 148.50866,3.59811765 149.66561,4.67341176 L148.281638,6.50556863 C147.335326,5.62478431 146.073057,5.21929412 144.93405,5.21929412 C143.812986,5.21929412 143.217738,5.71262745 143.217738,6.41694118 C143.217738,7.20988235 144.198376,7.45694118 145.547241,7.77380392 C147.475752,8.21458824 149.928518,8.79576471 149.928518,11.4028235 C149.928518,13.5518431 148.404121,15.1730196 145.250007,15.1730196 C143.007099,15.1730196 141.394546,14.4153725 140.290645,13.3055686 L141.657454,11.4028235 Z" id="Fill-20" fill="#454545" mask="url(#mask-2)"></path>
                <path d="M150.909078,3.21082353 L153.432837,3.21082353 L153.432837,10.1872941 C153.432837,11.8257255 154.326099,12.9527843 156.148511,12.9527843 C157.935816,12.9527843 158.829858,11.8257255 158.829858,10.1872941 L158.829858,3.21082353 L161.352837,3.21082353 L161.352837,10.2578824 C161.352837,13.1818039 159.688014,15.1723922 156.148511,15.1723922 C152.573901,15.1723922 150.909078,13.164549 150.909078,10.2751373 L150.909078,3.21082353 Z" id="Fill-21" fill="#454545" mask="url(#mask-2)"></path>
                <path d="M168.063773,5.36039216 L165.452638,5.36039216 L165.452638,8.60196078 L168.063773,8.60196078 C169.062355,8.60196078 169.815972,7.96745098 169.815972,6.98078431 C169.815972,5.99490196 169.062355,5.36039216 168.063773,5.36039216 L168.063773,5.36039216 Z M167.27505,10.7509804 L165.452638,10.7509804 L165.452638,14.9611765 L162.964766,14.9611765 L162.964766,3.21058824 L168.432,3.21058824 C170.867603,3.21058824 172.356894,4.8145098 172.356894,6.99803922 C172.356894,9.0772549 171.060298,10.1870588 169.798809,10.4866667 L172.427106,14.9611765 L169.571007,14.9611765 L167.27505,10.7509804 Z" id="Fill-22" fill="#454545" mask="url(#mask-2)"></path>
                <path d="M177.122702,10.7683137 L180.995326,10.7683137 L179.067596,5.37772549 L177.122702,10.7683137 Z M181.67873,12.9353725 L176.456461,12.9353725 L175.720787,14.9612549 L172.98717,14.9612549 L177.508092,3.21066667 L180.627099,3.21066667 L185.130858,14.9612549 L182.414404,14.9612549 L181.67873,12.9353725 Z" id="Fill-23" fill="#454545" mask="url(#mask-2)"></path>
                <polygon id="Fill-24" fill="#454545" mask="url(#mask-2)" points="189.405723 7.06917647 189.405723 14.9617255 186.917851 14.9617255 186.917851 3.21113725 189.475936 3.21113725 194.890901 10.8213333 194.890901 3.21113725 197.378773 3.21113725 197.378773 14.9617255 194.978277 14.9617255"></polygon>
                <path d="M199.130426,9.09513725 C199.130426,5.48337255 201.846099,3.01670588 205.263121,3.01670588 C207.926525,3.01670588 209.416596,4.42690196 210.240426,5.88886275 L208.102057,6.94611765 C207.612128,5.9947451 206.559716,5.23709804 205.263121,5.23709804 C203.230851,5.23709804 201.688511,6.87552941 201.688511,9.09513725 C201.688511,11.3147451 203.230851,12.9531765 205.263121,12.9531765 C206.559716,12.9531765 207.612128,12.2135686 208.102057,11.2441569 L210.240426,12.2833725 C209.398652,13.7461176 207.926525,15.1727843 205.263121,15.1727843 C201.846099,15.1727843 199.130426,12.7061176 199.130426,9.09513725" id="Fill-25" fill="#454545" mask="url(#mask-2)"></path>
                <polygon id="Fill-26" fill="#454545" mask="url(#mask-2)" points="211.728858 3.21082353 219.999922 3.21082353 219.999922 5.36062745 214.217511 5.36062745 214.217511 7.91435294 219.87744 7.91435294 219.87744 10.0641569 214.217511 10.0641569 214.217511 12.7943529 219.999922 12.7943529 219.999922 14.9614118 211.728858 14.9614118"></polygon>
                <path d="M50.9971702,29.6408627 C50.9971702,26.0941961 53.5614965,23.6722353 56.7795816,23.6722353 C58.6370993,23.6722353 60.0140496,24.4855686 60.9946879,25.7138039 L60.1692979,26.2494902 C59.4468865,25.2463529 58.190078,24.5718431 56.7795816,24.5718431 C54.1114965,24.5718431 52.0292979,26.6306667 52.0292979,29.6408627 C52.0292979,32.616549 54.1114965,34.7098824 56.7795816,34.7098824 C58.190078,34.7098824 59.4468865,34.0353725 60.1692979,33.031451 L60.9946879,33.5506667 C59.9797234,34.8134118 58.6370993,35.6094902 56.7795816,35.6094902 C53.5614965,35.6094902 50.9971702,33.1867451 50.9971702,29.6408627" id="Fill-27" fill="#454545" mask="url(#mask-2)"></path>
                <path d="M68.1359504,24.5719216 C65.3485035,24.5719216 63.5931844,26.7170196 63.5931844,29.6409412 C63.5931844,32.5468235 65.3485035,34.7099608 68.1359504,34.7099608 C70.8890709,34.7099608 72.6787163,32.5468235 72.6787163,29.6409412 C72.6787163,26.7170196 70.8890709,24.5719216 68.1359504,24.5719216 M68.1359504,23.6723137 C71.4921206,23.6723137 73.7116241,26.2676078 73.7116241,29.6409412 C73.7116241,33.0142745 71.4921206,35.6095686 68.1359504,35.6095686 C64.7633972,35.6095686 62.5610567,33.0142745 62.5610567,29.6409412 C62.5610567,26.2676078 64.7633972,23.6723137 68.1359504,23.6723137" id="Fill-28" fill="#454545" mask="url(#mask-2)"></path>
                <polygon id="Fill-29" fill="#454545" mask="url(#mask-2)" points="85.1889929 25.1597647 81.0074326 35.4021176 80.6282837 35.4021176 76.4295603 25.1597647 76.4295603 35.4021176 75.448922 35.4021176 75.448922 23.8625098 76.9116879 23.8625098 80.8178582 33.4295686 84.7068652 23.8625098 86.1867943 23.8625098 86.1867943 35.4021176 85.1889929 35.4021176"></polygon>
                <path d="M93.5682624,24.7618824 L90.3501773,24.7618824 L90.3501773,29.7101176 L93.5682624,29.7101176 C95.0825177,29.7101176 96.0982624,28.6889412 96.0982624,27.2363922 C96.0982624,25.7830588 95.0825177,24.7618824 93.5682624,24.7618824 L93.5682624,24.7618824 Z M89.369539,23.8622745 L93.6712411,23.8622745 C95.8743617,23.8622745 97.1303901,25.4191373 97.1303901,27.2363922 C97.1303901,29.0528627 95.8571986,30.6097255 93.6712411,30.6097255 L90.3501773,30.6097255 L90.3501773,35.4018824 L89.369539,35.4018824 L89.369539,23.8622745 Z" id="Fill-30" fill="#454545" mask="url(#mask-2)"></path>
                <path d="M99.5736383,31.6647843 L105.063496,31.6647843 L102.309596,24.8310588 L99.5736383,31.6647843 Z M105.373213,32.5643922 L99.263922,32.5643922 L98.1108723,35.4020392 L97.0093121,35.4020392 L101.707326,23.8624314 L102.929028,23.8624314 L107.627043,35.4020392 L106.525482,35.4020392 L105.373213,32.5643922 Z" id="Fill-31" fill="#454545" mask="url(#mask-2)"></path>
                <polygon id="Fill-32" fill="#454545" mask="url(#mask-2)" points="110.982043 25.4366275 110.982043 35.4021176 110.001404 35.4021176 110.001404 23.8625098 110.999206 23.8625098 118.192113 33.6883922 118.192113 23.8625098 119.172752 23.8625098 119.172752 35.4021176 118.209277 35.4021176"></polygon>
                <polygon id="Fill-33" fill="#454545" mask="url(#mask-2)" points="122.029007 35.4018824 123.009645 35.4018824 123.009645 23.8622745 122.029007 23.8622745"></polygon>
                <path d="M131.011248,24.5719216 C128.223801,24.5719216 126.468482,26.7170196 126.468482,29.6409412 C126.468482,32.5468235 128.223801,34.7099608 131.011248,34.7099608 C133.764369,34.7099608 135.554014,32.5468235 135.554014,29.6409412 C135.554014,26.7170196 133.764369,24.5719216 131.011248,24.5719216 M131.011248,23.6723137 C134.366638,23.6723137 136.586142,26.2676078 136.586142,29.6409412 C136.586142,33.0142745 134.366638,35.6095686 131.011248,35.6095686 C127.638695,35.6095686 125.436355,33.0142745 125.436355,29.6409412 C125.436355,26.2676078 127.638695,23.6723137 131.011248,23.6723137" id="Fill-34" fill="#454545" mask="url(#mask-2)"></path>
                <polygon id="Fill-35" fill="#454545" mask="url(#mask-2)" points="139.993177 25.4366275 139.993177 35.4021176 139.012539 35.4021176 139.012539 23.8625098 140.01034 23.8625098 147.203248 33.6883922 147.203248 23.8625098 148.184667 23.8625098 148.184667 35.4021176 147.220411 35.4021176"></polygon>
            </g>
        </g>
    </g>
</svg>