<?xml version="1.0" encoding="UTF-8"?>
<svg width="220px" height="40px" viewBox="0 0 220 40" version="1.1" xmlns="http://www.w3.org/2000/svg" xmlns:xlink="http://www.w3.org/1999/xlink">
    <!-- Generator: Sketch 55.2 (78181) - https://sketchapp.com -->
    <title>Logo</title>
    <desc>Created with Sketch.</desc>
    <g id="Landing-Page" stroke="none" stroke-width="1" fill="none" fill-rule="evenodd">
        <g id="Desktop-HD-Copy-6" transform="translate(-127.000000, -4140.000000)">
            <g id="Logo" transform="translate(127.000000, 4140.000000)">
                <path d="M19.2599078,11.7380392 L10.9802624,11.7380392 L10.9802624,20.0619608 C10.9802624,24.6596078 14.6874965,28.3858824 19.2599078,28.3858824 C23.8323191,28.3858824 27.5395532,24.6596078 27.5395532,20.0619608 C27.5395532,15.4643137 23.8323191,11.7380392 19.2599078,11.7380392" id="Fill-1" fill="#FFFFFF"></path>
                <path d="M5.64588652,5.67607843 L5.64588652,19.7121569 C5.64588652,27.4517647 11.9088652,33.7482353 19.607305,33.7482353 C27.3065248,33.7482353 33.5695035,27.4517647 33.5695035,19.7121569 C33.5695035,11.972549 27.3065248,5.67607843 19.607305,5.67607843 L5.64588652,5.67607843 Z M19.607305,39.425098 C8.79609929,39.425098 9.23705556e-14,30.5819608 9.23705556e-14,19.7121569 L9.23705556e-14,-1.66977543e-13 L19.607305,-1.66977543e-13 C30.4192908,-1.66977543e-13 39.2153901,8.84313725 39.2153901,19.7121569 C39.2153901,30.5819608 30.4192908,39.425098 19.607305,39.425098 L19.607305,39.425098 Z" id="Fill-3" fill="#4795FF"></path>
                <polygon id="Fill-5" fill="#FFFFFF" points="59.163305 10.0284706 53.6438014 10.0284706 53.6438014 14.9610196 51.1551489 14.9610196 51.1551489 3.21043137 53.6438014 3.21043137 53.6438014 7.82611765 59.163305 7.82611765 59.163305 3.21043137 61.6691206 3.21043137 61.6691206 14.9610196 59.163305 14.9610196"></polygon>
                <polygon id="Fill-7" fill="#FFFFFF" points="63.9641418 3.2105098 72.2352057 3.2105098 72.2352057 5.36031373 66.4520142 5.36031373 66.4520142 7.91403922 72.1119433 7.91403922 72.1119433 10.0638431 66.4520142 10.0638431 66.4520142 12.7940392 72.2352057 12.7940392 72.2352057 14.961098 63.9641418 14.961098"></polygon>
                <path d="M77.4211986,10.768 L81.2938227,10.768 L79.3660922,5.37741176 L77.4211986,10.768 Z M81.977227,12.9350588 L76.7549574,12.9350588 L76.0192837,14.9609412 L73.2856667,14.9609412 L77.8065887,3.21035294 L80.9255957,3.21035294 L85.4293546,14.9609412 L82.7129007,14.9609412 L81.977227,12.9350588 Z" id="Fill-9" fill="#FFFFFF"></path>
                <polygon id="Fill-11" fill="#FFFFFF" points="86.8655957 3.2105098 89.3534681 3.2105098 89.3534681 12.7587451 94.2948865 12.7587451 94.2948865 14.961098 86.8655957 14.961098"></polygon>
                <polygon id="Fill-13" fill="#FFFFFF" points="97.6771135 5.41294118 94.2600922 5.41294118 94.2600922 3.21058824 103.582007 3.21058824 103.582007 5.41294118 100.182929 5.41294118 100.182929 14.9611765 97.6771135 14.9611765"></polygon>
                <polygon id="Fill-15" fill="#FFFFFF" points="113.184305 10.0284706 107.664801 10.0284706 107.664801 14.9610196 105.176149 14.9610196 105.176149 3.21043137 107.664801 3.21043137 107.664801 7.82611765 113.184305 7.82611765 113.184305 3.21043137 115.690121 3.21043137 115.690121 14.9610196 113.184305 14.9610196"></polygon>
                <polygon id="Fill-17" fill="#FFFFFF" points="122.470333 14.9607843 124.958206 14.9607843 124.958206 3.21019608 122.470333 3.21019608"></polygon>
                <polygon id="Fill-19" fill="#FFFFFF" points="130.811064 7.06886275 130.811064 14.9614118 128.323191 14.9614118 128.323191 3.21082353 130.881277 3.21082353 136.296241 10.8210196 136.296241 3.21082353 138.784113 3.21082353 138.784113 14.9614118 136.383617 14.9614118"></polygon>
                <path d="M141.65722,11.4025098 C142.48105,12.2652549 143.760482,12.9876078 145.372255,12.9876078 C146.739064,12.9876078 147.404525,12.3358431 147.404525,11.6668235 C147.404525,10.7860392 146.38878,10.4864314 145.039135,10.1695686 C143.129348,9.72878431 140.675801,9.20015686 140.675801,6.57584314 C140.675801,4.62054902 142.357787,3.03466667 145.109348,3.03466667 C146.966865,3.03466667 148.508426,3.59780392 149.665376,4.67309804 L148.281404,6.5052549 C147.335092,5.62447059 146.072823,5.21898039 144.933816,5.21898039 C143.812752,5.21898039 143.217504,5.71231373 143.217504,6.41662745 C143.217504,7.20956863 144.198142,7.45662745 145.547007,7.7734902 C147.475518,8.21427451 149.928284,8.79545098 149.928284,11.4025098 C149.928284,13.5515294 148.403887,15.1727059 145.249773,15.1727059 C143.006865,15.1727059 141.394312,14.4150588 140.290411,13.3052549 L141.65722,11.4025098 Z" id="Fill-20" fill="#FFFFFF"></path>
                <path d="M150.908844,3.2105098 L153.432603,3.2105098 L153.432603,10.1869804 C153.432603,11.8254118 154.325865,12.9524706 156.148277,12.9524706 C157.935582,12.9524706 158.829624,11.8254118 158.829624,10.1869804 L158.829624,3.2105098 L161.352603,3.2105098 L161.352603,10.2575686 C161.352603,13.1814902 159.68778,15.1720784 156.148277,15.1720784 C152.573667,15.1720784 150.908844,13.1642353 150.908844,10.2748235 L150.908844,3.2105098 Z" id="Fill-21" fill="#FFFFFF"></path>
                <path d="M168.063539,5.36007843 L165.452404,5.36007843 L165.452404,8.60164706 L168.063539,8.60164706 C169.062121,8.60164706 169.815738,7.96713725 169.815738,6.98047059 C169.815738,5.99458824 169.062121,5.36007843 168.063539,5.36007843 L168.063539,5.36007843 Z M167.274816,10.7506667 L165.452404,10.7506667 L165.452404,14.9608627 L162.964532,14.9608627 L162.964532,3.21027451 L168.431766,3.21027451 C170.867369,3.21027451 172.35666,4.81419608 172.35666,6.99772549 C172.35666,9.07694118 171.060064,10.1867451 169.798574,10.4863529 L172.426872,14.9608627 L169.570773,14.9608627 L167.274816,10.7506667 Z" id="Fill-22" fill="#FFFFFF"></path>
                <path d="M177.122468,10.768 L180.995092,10.768 L179.067362,5.37741176 L177.122468,10.768 Z M181.678496,12.9350588 L176.456227,12.9350588 L175.720553,14.9609412 L172.986936,14.9609412 L177.507858,3.21035294 L180.626865,3.21035294 L185.130624,14.9609412 L182.41417,14.9609412 L181.678496,12.9350588 Z" id="Fill-23" fill="#FFFFFF"></path>
                <polygon id="Fill-24" fill="#FFFFFF" points="189.405489 7.06886275 189.405489 14.9614118 186.917617 14.9614118 186.917617 3.21082353 189.475702 3.21082353 194.890667 10.8210196 194.890667 3.21082353 197.378539 3.21082353 197.378539 14.9614118 194.978043 14.9614118"></polygon>
                <path d="M199.130191,9.09482353 C199.130191,5.48305882 201.845865,3.01639216 205.262887,3.01639216 C207.926291,3.01639216 209.416362,4.42658824 210.240191,5.88854902 L208.101823,6.94580392 C207.611894,5.99443137 206.559482,5.23678431 205.262887,5.23678431 C203.230617,5.23678431 201.688277,6.87521569 201.688277,9.09482353 C201.688277,11.3144314 203.230617,12.9528627 205.262887,12.9528627 C206.559482,12.9528627 207.611894,12.2132549 208.101823,11.2438431 L210.240191,12.2830588 C209.398418,13.7458039 207.926291,15.1724706 205.262887,15.1724706 C201.845865,15.1724706 199.130191,12.7058039 199.130191,9.09482353" id="Fill-25" fill="#FFFFFF"></path>
                <polygon id="Fill-26" fill="#FFFFFF" points="211.728624 3.2105098 219.999688 3.2105098 219.999688 5.36031373 214.217277 5.36031373 214.217277 7.91403922 219.877206 7.91403922 219.877206 10.0638431 214.217277 10.0638431 214.217277 12.7940392 219.999688 12.7940392 219.999688 14.961098 211.728624 14.961098"></polygon>
                <path d="M50.9969362,29.640549 C50.9969362,26.0938824 53.5612624,23.6719216 56.7793475,23.6719216 C58.6368652,23.6719216 60.0138156,24.4852549 60.9944539,25.7134902 L60.1690638,26.2491765 C59.4466525,25.2460392 58.189844,24.5715294 56.7793475,24.5715294 C54.1112624,24.5715294 52.0290638,26.6303529 52.0290638,29.640549 C52.0290638,32.6162353 54.1112624,34.7095686 56.7793475,34.7095686 C58.189844,34.7095686 59.4466525,34.0350588 60.1690638,33.0311373 L60.9944539,33.5503529 C59.9794894,34.813098 58.6368652,35.6091765 56.7793475,35.6091765 C53.5612624,35.6091765 50.9969362,33.1864314 50.9969362,29.640549" id="Fill-27" fill="#FFFFFF"></path>
                <path d="M68.1357163,24.5716078 C65.3482695,24.5716078 63.5929504,26.7167059 63.5929504,29.6406275 C63.5929504,32.5465098 65.3482695,34.7096471 68.1357163,34.7096471 C70.8888369,34.7096471 72.6784823,32.5465098 72.6784823,29.6406275 C72.6784823,26.7167059 70.8888369,24.5716078 68.1357163,24.5716078 M68.1357163,23.672 C71.4918865,23.672 73.7113901,26.2672941 73.7113901,29.6406275 C73.7113901,33.0139608 71.4918865,35.6092549 68.1357163,35.6092549 C64.7631631,35.6092549 62.5608227,33.0139608 62.5608227,29.6406275 C62.5608227,26.2672941 64.7631631,23.672 68.1357163,23.672" id="Fill-28" fill="#FFFFFF"></path>
                <polygon id="Fill-29" fill="#FFFFFF" points="85.1887589 25.159451 81.0071986 35.4018039 80.6280496 35.4018039 76.4293262 25.159451 76.4293262 35.4018039 75.4486879 35.4018039 75.4486879 23.8621961 76.9114539 23.8621961 80.8176241 33.4292549 84.7066312 23.8621961 86.1865603 23.8621961 86.1865603 35.4018039 85.1887589 35.4018039"></polygon>
                <path d="M93.5680284,24.7615686 L90.3499433,24.7615686 L90.3499433,29.7098039 L93.5680284,29.7098039 C95.0822837,29.7098039 96.0980284,28.6886275 96.0980284,27.2360784 C96.0980284,25.7827451 95.0822837,24.7615686 93.5680284,24.7615686 L93.5680284,24.7615686 Z M89.369305,23.8619608 L93.6710071,23.8619608 C95.8741277,23.8619608 97.130156,25.4188235 97.130156,27.2360784 C97.130156,29.052549 95.8569645,30.6094118 93.6710071,30.6094118 L90.3499433,30.6094118 L90.3499433,35.4015686 L89.369305,35.4015686 L89.369305,23.8619608 Z" id="Fill-30" fill="#FFFFFF"></path>
                <path d="M99.5734043,31.6644706 L105.063262,31.6644706 L102.309362,24.8307451 L99.5734043,31.6644706 Z M105.372979,32.5640784 L99.2636879,32.5640784 L98.1106383,35.4017255 L97.009078,35.4017255 L101.707092,23.8621176 L102.928794,23.8621176 L107.626809,35.4017255 L106.525248,35.4017255 L105.372979,32.5640784 Z" id="Fill-31" fill="#FFFFFF"></path>
                <polygon id="Fill-32" fill="#FFFFFF" points="110.981809 25.4363137 110.981809 35.4018039 110.00117 35.4018039 110.00117 23.8621961 110.998972 23.8621961 118.191879 33.6880784 118.191879 23.8621961 119.172518 23.8621961 119.172518 35.4018039 118.209043 35.4018039"></polygon>
                <polygon id="Fill-33" fill="#FFFFFF" points="122.028773 35.4015686 123.009411 35.4015686 123.009411 23.8619608 122.028773 23.8619608"></polygon>
                <path d="M131.011014,24.5716078 C128.223567,24.5716078 126.468248,26.7167059 126.468248,29.6406275 C126.468248,32.5465098 128.223567,34.7096471 131.011014,34.7096471 C133.764135,34.7096471 135.55378,32.5465098 135.55378,29.6406275 C135.55378,26.7167059 133.764135,24.5716078 131.011014,24.5716078 M131.011014,23.672 C134.366404,23.672 136.585908,26.2672941 136.585908,29.6406275 C136.585908,33.0139608 134.366404,35.6092549 131.011014,35.6092549 C127.638461,35.6092549 125.436121,33.0139608 125.436121,29.6406275 C125.436121,26.2672941 127.638461,23.672 131.011014,23.672" id="Fill-34" fill="#FFFFFF"></path>
                <polygon id="Fill-35" fill="#FFFFFF" points="139.992943 25.4363137 139.992943 35.4018039 139.012305 35.4018039 139.012305 23.8621961 140.010106 23.8621961 147.203014 33.6880784 147.203014 23.8621961 148.184433 23.8621961 148.184433 35.4018039 147.220177 35.4018039"></polygon>
            </g>
        </g>
    </g>
</svg>