<?xml version="1.0" standalone="no"?>
<!DOCTYPE svg PUBLIC "-//W3C//DTD SVG 20010904//EN"
 "http://www.w3.org/TR/2001/REC-SVG-20010904/DTD/svg10.dtd">
<svg version="1.0" xmlns="http://www.w3.org/2000/svg"
 width="138.000000pt" height="138.000000pt" viewBox="0 0 138.000000 138.000000"
 preserveAspectRatio="xMidYMid meet">
<metadata>
Created by potrace 1.11, written by Peter Selinger 2001-2013
</metadata>
<g transform="translate(0.000000,138.000000) scale(0.100000,-0.100000)"
fill="#000000" stroke="none">
<path d="M251 1180 c26 -66 74 -196 83 -227 6 -19 2 -22 -46 -32 -29 -5 -73
-12 -98 -15 -25 -3 -70 -8 -100 -12 -30 -3 -56 -8 -58 -9 -3 -3 56 -18 153
-40 92 -21 165 -50 165 -64 0 -9 -15 -74 -34 -146 -19 -71 -33 -131 -32 -132
1 -1 42 36 91 83 50 47 100 92 112 100 29 21 24 25 210 -149 l51 -48 -61 151
c-70 172 -72 165 33 176 36 3 73 8 83 10 10 2 42 4 73 5 30 1 51 5 47 9 -5 3
-53 16 -108 29 -55 12 -121 30 -147 39 -59 20 -59 22 -19 187 16 66 28 121 27
122 -2 2 -32 -27 -68 -65 -36 -37 -84 -84 -108 -106 l-42 -38 -115 113 -114
114 22 -55z"/>
<path d="M700 1000 c-40 -4 -45 -8 -48 -31 -3 -26 7 -33 67 -45 7 -1 34 -8 60
-14 47 -11 72 -16 126 -26 64 -11 230 -69 246 -85 21 -21 18 -54 -21 -204 -60
-231 -42 -220 -363 -220 -248 0 -249 0 -268 23 -21 27 -19 70 11 183 25 98 9
102 -77 18 -159 -156 -145 -137 -148 -206 -4 -108 35 -159 141 -184 44 -10
532 -15 574 -6 70 16 89 22 120 37 52 27 109 88 136 149 30 66 102 337 107
407 9 116 -47 184 -167 201 -51 7 -438 9 -496 3z"/>
</g>
</svg>
